<svg xmlns="http://www.w3.org/2000/svg" width="100.8" height="22" viewBox="0 0 1008 220">
  <defs>
    <style>
      .cls-1 {
        fill-rule: evenodd;
      }
    </style>
  </defs>
  <g id="Artboard_1" data-name="Artboard 1">
    <path id="Comics" class="cls-1" d="M40.3,217q18.923,0,28.87-10.781t9.943-30.427V152.07H54.193v25.635q0,15.336-13.177,15.334T27.839,177.705V84.028q0-15.571,13.177-15.573T54.193,84.028v19.407H79.11V85.705q0-19.642-9.943-30.427T40.3,44.5q-18.929,0-28.87,10.781T1.485,85.705v90.084q0,19.647,9.943,30.427T40.3,217h0Zm93.2,0q19.406,0,29.708-11.021t10.3-31.146V86.664q0-20.125-10.3-31.146T133.494,44.5q-19.407,0-29.709,11.021t-10.3,31.146V174.83q0,20.126,10.3,31.146T133.494,217h0Zm0-23.958q-13.656,0-13.657-16.532V84.987q0-16.531,13.657-16.531T147.15,84.987v91.52q0,16.531-13.656,16.532h0ZM191.232,214.6h23V87.622h0.479L233.878,214.6h22.041L275.086,87.622h0.479V214.6h24.917V46.893H262.867L246.1,166.924h-0.479L228.846,46.893H191.232V214.6Zm128.894,0H346.48V46.893H320.126V214.6Zm83.132,2.4q18.924,0,28.87-10.781t9.943-30.427V152.07H417.154v25.635q0,15.336-13.177,15.334T390.8,177.705V84.028q0-15.571,13.177-15.573t13.177,15.573v19.407h24.917V85.705q0-19.642-9.943-30.427T403.258,44.5q-18.928,0-28.869,10.781t-9.943,30.427v90.084q0,19.647,9.943,30.427T403.258,217h0Zm89.364,0q19.406,0,29.588-11.021t10.182-31.625q0-15.811-6.229-27.552T503.4,120.685q-12.937-11.259-17.849-19.167a31.642,31.642,0,0,1-4.912-17.011q0-16.048,13.178-16.052,6.468,0,9.822,3.953T507,84.987v8.625h24.916V86.664q0-20.361-9.7-31.266T493.58,44.5q-19.17,0-29.229,10.9T454.288,86.185a53.008,53.008,0,0,0,6.469,26.234q6.469,11.624,22.76,25.995,12.938,11.264,17.73,19.286a35.545,35.545,0,0,1,4.791,18.568q0,8.867-3.474,12.818t-10.182,3.953q-13.656,0-13.656-16.292v-11.5H453.809v9.583q0,20.367,9.823,31.266t28.99,10.9h0Z"/>
    <path id="Cloud" class="cls-1" d="M663.675,90.63a5.733,5.733,0,0,0,2.056.294c9.694-15.569,13.806-42.593,10.281-62.568C673.956,16.018,667.2,9.262,656.919,5.737c-4.7-1.469-9.988-2.35-14.981-4.112a25.579,25.579,0,0,0-22.913,3.819A53.157,53.157,0,0,0,603.75,17.487C568.5,56.262,549.7,102.967,550.582,158.192c0.294,17.037,4.7,33.193,14.688,46.7,6.168,7.932,14.1,13.807,23.5,14.394,19.681,1.469,38.481-.587,54.05-14.1,22.325-18.506,15.568-14.981,37.306-33.781a101.861,101.861,0,0,0,6.756-8.225c-5.288.294-9.106,2.057-10.575,0.882-6.756-7.932-10.869-1.469-15.862,2.35-20.269,15.568-11.456,9.693-32.019,25.262-8.812,6.462-19.093,10.869-28.787,16.45-5.287,2.643-9.106.587-12.337-4.7-5.288-8.813-7.638-18.213-8.813-28.494-2.643-22.912.881-44.943,6.756-66.387,9.107-32.018,24.381-59.336,46.706-81.955,3.819-4.113,8.225-8.519,14.981-9.106,1.763,7.05,3.819,13.219,3.819,19.975,0.294,11.75-.294,23.794-0.587,35.25,0,4.994-1.175,9.4-.882,13.512,0.294,2.35,3.231,4.7,5.288,5.875,2.937,0.881,5.875-1.175,6.168-4.7,1.763-13.219,3.819-26.144,4.407-39.068,0.293-8.812-1.469-17.331-2.057-26.143,5.582,10.869,5.875,22.912,4.994,34.662C667.494,68.011,665.144,79.468,663.675,90.63Zm-77.843-4.406c-11.75,37.012-18.506,74.024-4.113,113.68C564.1,177.579,567.326,123.823,585.832,86.224ZM622.257,209.3c1.468-.588,3.231-1.175,5.287-2.057a3.109,3.109,0,0,0,.587,1.469c-2.056,1.175-3.818,1.763-4.993,2.644A2.665,2.665,0,0,1,622.257,209.3Zm23.5-13.806c-0.881.587-1.762,1.175-2.937,2.056,0.294-.881.294-1.469,0.881-1.763a9.49,9.49,0,0,1,1.469-.881A0.576,0.576,0,0,1,645.756,195.5Zm97.817-65.506c-6.756,5.287-27.318,65.212-28.787,41.712,0-10.575,0-28.2.294-38.481,0.881-19.681,2.056-39.656,3.524-59.337,0.882-10.281,2.35-20.856,3.232-30.843,0.293-3.525.587-7.05-4.113-7.637-3.818,1.762-7.343,4.112-11.75,6.169a38.439,38.439,0,0,0-1.468,4.406,306.262,306.262,0,0,0-8.813,100.462c-3.231-32.606-2.35-64.331,4.113-96.055-7.931,17.625-9.988,68.149-6.756,96.055,1.468,9.106,5.874,58.162,24.674,46.118,10.575-7.05,25.85-46.118,30.256-58.162C748.273,133.223,747.685,127.642,743.573,129.992Zm75.49,7.931c13.513-2.644,12.044-9.106,0-9.106-4.7-.294-8.812-0.294-13.512-0.587,0.881-9.4-.294-41.419-24.969-42.887-21.737-.881-25.555,21.737-21.737,33.488-21.15,2.643-29.962,35.837-16.45,57.574,7.638,11.75,19.681,12.044,30.844,10.575,12.925-1.469,27.025-29.962,30.549-47.293h0.588C807.313,139.392,814.951,138.8,819.063,137.923Zm-54.93-9.106c3.231,7.05,15.275,10.575,25.849,10.869-2.056,8.812-7.931,24.968-18.212,32.606C758.551,167.3,754.733,145.854,764.133,128.817Zm27.612-.881a22.076,22.076,0,0,1-23.206-16.744c-3.525-12.925,10.575-29.081,19.093-12.043C791.157,107.08,792.626,118.536,791.745,127.936Zm53.169-7.638c0.587-1.175-3.231-2.937-8.225-3.525-8.812-1.175-10.869-.881-13.806,8.519-2.056,9.694-4.7,20.562-4.994,30.55-0.881,11.456,3.525,21.737,13.513,26.731,4.993,2.056,12.043.881,17.331-1.175,15.568-5.581,25.556-27.025,34.955-45.237-2.937,13.218-2.35,55.518,22.031,44.943,12.925-5.581,29.081-32.312,31.725-44.356,0.294-7.343-5.581-8.812-9.4-3.525-3.231,4.7-8.812,19.388-14.393,27.612-4.113,5.875-7.05,9.4-9.694,8.813-6.756-1.175-5.287-34.075-4.7-38.775,0.588-7.931-2.35-12.337-8.225-14.981a13.006,13.006,0,0,0-16.156,4.113c-9.4,14.1-12.631,30.256-22.912,44.943-9.988,12.925-14.981,4.406-14.1-11.162C838.451,142.329,842.27,128.817,844.914,120.3ZM986.205,18.956c-10.281,21.737-14.394,53.756-17.919,86.361-31.724,0-46.7,26.731-43.18,58.162,1.468,10.869,5.875,25.556,20.268,24.087,9.4-.881,14.1-21.443,22.912-58.161a262.5,262.5,0,0,0,5.875,82.249c2.644,9.106,15.569,5.875,14.1,1.175-3.231-5.875-11.75-108.98,18.509-191.23,0.29-.881.58-2.056,0.58-2.056C994.43,10.731,987.967,15.431,986.205,18.956Zm-49.349,154.8c-5.875-19.681,8.812-45.237,25.849-53.462-4.7,12.631-6.756,29.375-14.981,44.356-8.519,15.862-8.519.881-8.225-7.931C937.149,156.429,936.268,163.773,936.856,173.76Z"/>
  </g>
</svg>
